<svg width="74" height="20" viewBox="0 0 74 20" fill="none" xmlns="http://www.w3.org/2000/svg">
<path d="M22.8849 4.81818H25.5398L28.3438 11.6591H28.4631L31.267 4.81818H33.9219V15H31.8338V8.37287H31.7493L29.1143 14.9503H27.6925L25.0575 8.34801H24.973V15H22.8849V4.81818ZM39.106 15.1491C38.3337 15.1491 37.6659 14.9851 37.1025 14.657C36.5423 14.3255 36.1098 13.8648 35.8049 13.2749C35.4999 12.6816 35.3475 11.9938 35.3475 11.2116C35.3475 10.4228 35.4999 9.73343 35.8049 9.14347C36.1098 8.55019 36.5423 8.08949 37.1025 7.76136C37.6659 7.42992 38.3337 7.2642 39.106 7.2642C39.8783 7.2642 40.5444 7.42992 41.1046 7.76136C41.668 8.08949 42.1022 8.55019 42.4071 9.14347C42.7121 9.73343 42.8645 10.4228 42.8645 11.2116C42.8645 11.9938 42.7121 12.6816 42.4071 13.2749C42.1022 13.8648 41.668 14.3255 41.1046 14.657C40.5444 14.9851 39.8783 15.1491 39.106 15.1491ZM39.1159 13.5085C39.4673 13.5085 39.7606 13.4091 39.9959 13.2102C40.2312 13.008 40.4086 12.733 40.5279 12.3849C40.6505 12.0369 40.7118 11.6409 40.7118 11.1967C40.7118 10.7526 40.6505 10.3565 40.5279 10.0085C40.4086 9.66051 40.2312 9.38542 39.9959 9.18324C39.7606 8.98106 39.4673 8.87997 39.1159 8.87997C38.7613 8.87997 38.463 8.98106 38.2211 9.18324C37.9824 9.38542 37.8018 9.66051 37.6792 10.0085C37.5598 10.3565 37.5002 10.7526 37.5002 11.1967C37.5002 11.6409 37.5598 12.0369 37.6792 12.3849C37.8018 12.733 37.9824 13.008 38.2211 13.2102C38.463 13.4091 38.7613 13.5085 39.1159 13.5085ZM47.0556 15.1243C46.4756 15.1243 45.9502 14.9751 45.4796 14.6768C45.0123 14.3752 44.641 13.9328 44.3659 13.3494C44.0942 12.7628 43.9583 12.0436 43.9583 11.1918C43.9583 10.3168 44.0991 9.58925 44.3809 9.00923C44.6626 8.4259 45.0371 7.99006 45.5044 7.7017C45.9751 7.41004 46.4905 7.2642 47.0506 7.2642C47.4782 7.2642 47.8345 7.33712 48.1195 7.48295C48.4078 7.62547 48.6399 7.80445 48.8155 8.01989C48.9945 8.23201 49.1304 8.44081 49.2232 8.64631H49.2878V4.81818H51.4007V15H49.3127V13.777H49.2232C49.1238 13.9891 48.9829 14.1996 48.8006 14.4084C48.6216 14.6139 48.388 14.7846 48.0996 14.9205C47.8146 15.0563 47.4666 15.1243 47.0556 15.1243ZM47.7267 13.4389C48.0681 13.4389 48.3565 13.3461 48.5918 13.1605C48.8304 12.9716 49.0127 12.7081 49.1387 12.37C49.2679 12.032 49.3326 11.6359 49.3326 11.1818C49.3326 10.7277 49.2696 10.3333 49.1436 9.99858C49.0177 9.66383 48.8354 9.4053 48.5968 9.22301C48.3581 9.04072 48.0681 8.94957 47.7267 8.94957C47.3787 8.94957 47.0854 9.04403 46.8468 9.23295C46.6081 9.42187 46.4275 9.68371 46.3049 10.0185C46.1822 10.3532 46.1209 10.741 46.1209 11.1818C46.1209 11.6259 46.1822 12.0187 46.3049 12.3601C46.4308 12.6982 46.6114 12.9633 46.8468 13.1555C47.0854 13.3445 47.3787 13.4389 47.7267 13.4389ZM56.6222 15.1491C55.8366 15.1491 55.1605 14.9901 54.5938 14.6719C54.0303 14.3504 53.5961 13.8963 53.2912 13.3097C52.9863 12.7197 52.8338 12.022 52.8338 11.2166C52.8338 10.4311 52.9863 9.74171 53.2912 9.14844C53.5961 8.55516 54.0253 8.0928 54.5788 7.76136C55.1357 7.42992 55.7886 7.2642 56.5376 7.2642C57.0414 7.2642 57.5104 7.34541 57.9446 7.50781C58.3821 7.6669 58.7633 7.9072 59.0881 8.22869C59.4162 8.55019 59.6714 8.95455 59.8537 9.44176C60.036 9.92566 60.1271 10.4924 60.1271 11.142V11.7237H53.679V10.4112H58.1335C58.1335 10.1063 58.0672 9.83617 57.9347 9.60085C57.8021 9.36553 57.6181 9.18158 57.3828 9.04901C57.1508 8.91312 56.8807 8.84517 56.5724 8.84517C56.2509 8.84517 55.9659 8.91974 55.7173 9.06889C55.4721 9.21473 55.2798 9.41193 55.1406 9.66051C55.0014 9.90578 54.9302 10.1792 54.9268 10.4808V11.7287C54.9268 12.1065 54.9964 12.433 55.1357 12.7081C55.2782 12.9832 55.4787 13.1953 55.7372 13.3445C55.9957 13.4936 56.3023 13.5682 56.657 13.5682C56.8923 13.5682 57.1077 13.535 57.3033 13.4688C57.4988 13.4025 57.6662 13.303 57.8054 13.1705C57.9446 13.0379 58.0507 12.8755 58.1236 12.6832L60.0824 12.8125C59.983 13.2831 59.7791 13.6941 59.4709 14.0455C59.166 14.3935 58.7715 14.6652 58.2876 14.8608C57.8071 15.053 57.2519 15.1491 56.6222 15.1491ZM61.5092 15V7.36364H63.5277V8.71094H63.6172C63.7763 8.26349 64.0414 7.91051 64.4126 7.65199C64.7839 7.39347 65.228 7.2642 65.745 7.2642C66.2687 7.2642 66.7145 7.39512 67.0824 7.65696C67.4503 7.91548 67.6955 8.26681 67.8182 8.71094H67.8977C68.0535 8.27344 68.3352 7.92377 68.7429 7.66193C69.1539 7.39678 69.6394 7.2642 70.1996 7.2642C70.9122 7.2642 71.4905 7.49124 71.9347 7.94531C72.3821 8.39607 72.6058 9.03575 72.6058 9.86435V15H70.4929V10.282C70.4929 9.85772 70.3802 9.53954 70.1548 9.32741C69.9295 9.11529 69.6477 9.00923 69.3097 9.00923C68.9252 9.00923 68.6252 9.13187 68.4098 9.37713C68.1944 9.61908 68.0866 9.93892 68.0866 10.3366V15H66.0334V10.2372C66.0334 9.86269 65.9257 9.56439 65.7102 9.34233C65.4981 9.12026 65.218 9.00923 64.87 9.00923C64.6347 9.00923 64.4226 9.06889 64.2337 9.18821C64.0481 9.30421 63.9006 9.46828 63.7912 9.6804C63.6818 9.8892 63.6271 10.1345 63.6271 10.4162V15H61.5092Z" fill="black"/>
<path fill-rule="evenodd" clip-rule="evenodd" d="M2.88714 2.88708C1.66675 4.10746 1.66675 6.07165 1.66675 10C1.66675 13.9284 1.66675 15.8926 2.88714 17.1129C4.10752 18.3334 6.07171 18.3334 10.0001 18.3334C13.9284 18.3334 15.8927 18.3334 17.113 17.1129C18.3334 15.8926 18.3334 13.9284 18.3334 10C18.3334 6.07165 18.3334 4.10746 17.113 2.88708C15.8927 1.66669 13.9284 1.66669 10.0001 1.66669C6.07171 1.66669 4.10752 1.66669 2.88714 2.88708ZM11.4584 8.33335C11.4584 8.67852 11.7382 8.95835 12.0834 8.95835H12.6578L10.9807 10.6355C10.8993 10.7169 10.7675 10.7169 10.6861 10.6355L9.36458 9.31402C8.79508 8.74452 7.87173 8.74452 7.30221 9.31402L5.39147 11.2248C5.1474 11.4689 5.1474 11.8645 5.39147 12.1086C5.63555 12.3527 6.03128 12.3527 6.27536 12.1086L8.1861 10.1979C8.26746 10.1165 8.39933 10.1165 8.48075 10.1979L9.80225 11.5194C10.3717 12.0889 11.2951 12.0889 11.8646 11.5194L13.5417 9.84227V10.4167C13.5417 10.7619 13.8216 11.0417 14.1667 11.0417C14.5119 11.0417 14.7917 10.7619 14.7917 10.4167V8.33335C14.7917 7.98818 14.5119 7.70835 14.1667 7.70835H12.0834C11.7382 7.70835 11.4584 7.98818 11.4584 8.33335Z" fill="#3E61D6"/>
</svg>
